<?xml version="1.0" encoding="UTF-8" standalone="no"?>
<!-- Created with Inkscape (http://www.inkscape.org/) -->

<svg
   version="1.1"
   id="svg1"
   width="512"
   height="512"
   viewBox="0 0 512 512"
   sodipodi:docname="modicon.svg"
   inkscape:version="1.4.4 (dcaf3e7d9e, 2026-05-05)"
   xmlns:inkscape="http://www.inkscape.org/namespaces/inkscape"
   xmlns:sodipodi="http://sodipodi.sourceforge.net/DTD/sodipodi-0.dtd"
   xmlns="http://www.w3.org/2000/svg"
   xmlns:svg="http://www.w3.org/2000/svg">
  <defs
     id="defs1" />
  <sodipodi:namedview
     id="namedview1"
     pagecolor="#505050"
     bordercolor="#ffffff"
     borderopacity="1"
     inkscape:showpageshadow="0"
     inkscape:pageopacity="0"
     inkscape:pagecheckerboard="1"
     inkscape:deskcolor="#505050"
     inkscape:zoom="0.78444659"
     inkscape:cx="202.05327"
     inkscape:cy="426.41527"
     inkscape:window-width="1194"
     inkscape:window-height="1008"
     inkscape:window-x="0"
     inkscape:window-y="0"
     inkscape:window-maximized="1"
     inkscape:current-layer="g1" />
  <g
     inkscape:groupmode="layer"
     inkscape:label="Image"
     id="g1">
    <path
       id="rect2"
       style="fill:#4b004b;fill-opacity:1;stroke-width:3.18754"
       d="M -283.44727 118.98633 C -284.72083 118.98633 -285.74609 119.91947 -285.74609 121.07812 L -285.74609 130.70508 L -203.71875 130.70508 L -203.71875 142.42383 L -203.71875 224.45117 L -215.43555 224.45117 L -250.5918 224.45117 L -250.5918 306.47852 L -227.1543 306.47852 L -227.1543 283.04297 L -238.87305 283.04297 L -238.87305 271.32422 L -238.87305 247.88672 L -238.87305 236.16992 L -203.39844 236.16992 L -203.39844 247.88672 L -227.1543 247.88672 L -227.1543 271.32422 L -215.43555 271.32422 L -215.43555 283.04297 L -215.43555 388.50781 L -192 388.50781 L -192 376.78906 L -180.28125 376.78906 L -180.28125 400.22656 L -165.52148 400.22656 L -165.52148 388.50781 L -165.52148 376.78906 L -98.253906 376.78906 L -98.253906 388.50781 L -98.253906 411.94336 L -86.535156 411.94336 L -86.535156 398.31055 L -74.816406 398.31055 L -74.816406 411.94336 L -63.097656 411.94336 L -63.097656 388.50781 L -51.378906 388.50781 L -51.378906 411.94336 L -51.378906 423.66211 L -109.9707 423.66211 L -109.9707 411.94336 L -109.9707 388.50781 L -153.80273 388.50781 L -153.80273 400.22656 L -133.4082 400.22656 L -133.4082 411.94336 L -153.80273 411.94336 L -153.80273 423.66211 L -165.52148 423.66211 L -165.52148 411.94336 L -180.28125 411.94336 L -180.28125 436.99023 L -192 436.99023 L -192 423.66211 L -227.1543 423.66211 L -227.1543 411.94336 L -192 411.94336 L -192 400.22656 L -262.30859 400.22656 L -262.30859 411.94336 L -244.8125 411.94336 L -244.8125 423.66211 L -262.30859 423.66211 L -262.30859 435.38086 L -274.02734 435.38086 L -274.02734 376.78906 L -262.30859 376.78906 L -262.30859 388.50781 L -227.1543 388.50781 L -227.1543 318.19727 L -250.5918 318.19727 L -250.5918 353.35156 L -238.87305 353.35156 L -238.87305 365.07031 L -274.02734 365.07031 L -274.02734 353.35156 L -262.30859 353.35156 L -262.30859 318.19727 L -274.02734 318.19727 L -274.02734 306.47852 L -262.30859 306.47852 L -262.30859 224.45117 L -274.02734 224.45117 L -274.02734 212.73242 L -262.30859 212.73242 L -262.30859 165.85938 L -274.02734 165.85938 L -274.02734 154.14062 L -227.1543 154.14062 L -227.1543 165.85938 L -227.1543 189.29688 L -238.87305 189.29688 L -238.87305 165.85938 L -250.5918 165.85938 L -250.5918 212.73242 L -215.43555 212.73242 L -215.43555 142.42383 L -285.74609 142.42383 L -285.74609 445.00977 C -285.74609 446.16842 -284.72083 447.09961 -283.44727 447.09961 L -192.40039 447.09961 C -192.29652 447.09961 -192.19389 447.09373 -192.09375 447.08203 L -41.21875 447.08203 C -40.356804 447.08203 -39.662109 446.45019 -39.662109 445.66602 L -39.662109 361.48438 C -39.662109 360.7002 -40.356804 360.06836 -41.21875 360.06836 L -190.10156 360.06836 L -190.10156 121.07812 C -190.10156 119.91948 -191.12682 118.98633 -192.40039 118.98633 L -283.44727 118.98633 z " />
    <rect
       style="fill:#ff0000;fill-opacity:1;stroke-width:2.06836"
       id="rect5"
       width="32.901356"
       height="11.718309"
       x="-456.7883"
       y="37.859135"
       ry="0" />
    <rect
       style="fill:#ff0000;fill-opacity:1;stroke-width:2.06836"
       id="rect6"
       width="32.901356"
       height="11.718309"
       x="-427.71793"
       y="14.87322"
       ry="0" />
    <rect
       style="fill:#ff0000;fill-opacity:1;stroke-width:2.06836"
       id="rect7"
       width="32.901356"
       height="11.718309"
       x="74.140862"
       y="429.52094"
       ry="0"
       transform="rotate(90)" />
    <rect
       style="fill:#0000ff;fill-opacity:1;stroke-width:3.13776"
       id="rect8"
       width="75.718307"
       height="11.718309"
       x="43.268021"
       y="274.02777"
       ry="2.0799251"
       transform="rotate(90)" />
    <rect
       style="fill:#0000ff;fill-opacity:1;stroke-width:3.13776"
       id="rect13"
       width="75.718307"
       height="11.718309"
       x="43.268021"
       y="250.59113"
       ry="2.0799251"
       transform="rotate(90)" />
    <rect
       style="fill:#0000ff;fill-opacity:1;stroke-width:3.13776"
       id="rect15"
       width="75.718307"
       height="11.718309"
       x="43.268021"
       y="227.15448"
       ry="2.0799251"
       transform="rotate(90)" />
    <rect
       style="fill:#0000ff;fill-opacity:1;stroke-width:3.13776"
       id="rect17"
       width="75.718307"
       height="11.718309"
       x="43.268021"
       y="203.71786"
       ry="2.0799251"
       transform="rotate(90)" />
    <rect
       style="fill:#aa8800;fill-opacity:1;stroke-width:3.13776"
       id="rect19"
       width="75.718307"
       height="11.718309"
       x="285.74609"
       y="-130.70464"
       ry="2.0799251"
       transform="scale(-1)" />
    <rect
       style="fill:#aa8800;fill-opacity:1;stroke-width:3.13776"
       id="rect21"
       width="75.718307"
       height="11.718309"
       x="285.74609"
       y="-154.14125"
       ry="2.0799251"
       transform="scale(-1)" />
    <rect
       style="fill:#aa8800;fill-opacity:1;stroke-width:3.13776"
       id="rect23"
       width="75.718307"
       height="11.718309"
       x="285.74609"
       y="-177.57787"
       ry="2.0799251"
       transform="scale(-1)" />
    <rect
       style="fill:#aa8800;fill-opacity:1;stroke-width:3.13776"
       id="rect25"
       width="75.718307"
       height="11.718309"
       x="285.74609"
       y="-201.01447"
       ry="2.0799251"
       transform="scale(-1)" />
    <rect
       style="fill:#aa8800;fill-opacity:1;stroke-width:3.13776"
       id="rect27"
       width="75.718307"
       height="11.718309"
       x="285.74609"
       y="-224.45107"
       ry="2.0799251"
       transform="scale(-1)" />
    <rect
       style="fill:#0000ff;fill-opacity:1;stroke-width:3.13776"
       id="rect50"
       width="75.718307"
       height="11.718309"
       x="43.268021"
       y="180.28125"
       ry="2.0799251"
       transform="rotate(90)" />
    <rect
       style="fill:#0000ff;fill-opacity:1;stroke-width:3.13776"
       id="rect51"
       width="75.718307"
       height="11.718309"
       x="43.268021"
       y="156.8446"
       ry="2.0799251"
       transform="rotate(90)" />
    <rect
       style="fill:#0000ff;fill-opacity:1;stroke-width:3.13776"
       id="rect52"
       width="75.718307"
       height="11.718309"
       x="43.268021"
       y="133.40796"
       ry="2.0799251"
       transform="rotate(90)" />
    <rect
       style="fill:#0000ff;fill-opacity:1;stroke-width:3.13776"
       id="rect53"
       width="75.718307"
       height="11.718309"
       x="43.268021"
       y="109.97134"
       ry="2.0799251"
       transform="rotate(90)" />
    <rect
       style="fill:#0000ff;fill-opacity:1;stroke-width:3.13776"
       id="rect54"
       width="75.718307"
       height="11.718309"
       x="43.268021"
       y="86.534714"
       ry="2.0799251"
       transform="rotate(90)" />
    <rect
       style="fill:#0000ff;fill-opacity:1;stroke-width:3.13776"
       id="rect55"
       width="75.718307"
       height="11.718309"
       x="43.268021"
       y="63.098068"
       ry="2.0799251"
       transform="rotate(90)" />
    <rect
       style="fill:#0000ff;fill-opacity:1;stroke-width:3.13776"
       id="rect56"
       width="75.718307"
       height="11.718309"
       x="43.268021"
       y="39.661423"
       ry="2.0799251"
       transform="rotate(90)" />
    <rect
       style="fill:#0000ff;fill-opacity:1;stroke-width:3.13776"
       id="rect57"
       width="75.718307"
       height="11.718309"
       x="43.268021"
       y="16.2248"
       ry="2.0799251"
       transform="rotate(90)" />
    <rect
       style="fill:#aa8800;fill-opacity:1;stroke-width:3.13776"
       id="rect58"
       width="75.718307"
       height="11.718309"
       x="285.74609"
       y="-247.88768"
       ry="2.0799251"
       transform="scale(-1)" />
    <rect
       style="fill:#aa8800;fill-opacity:1;stroke-width:3.13776"
       id="rect59"
       width="75.718307"
       height="11.718309"
       x="285.74609"
       y="-271.32434"
       ry="2.0799251"
       transform="scale(-1)" />
    <rect
       style="fill:#aa8800;fill-opacity:1;stroke-width:3.13776"
       id="rect60"
       width="75.718307"
       height="11.718309"
       x="285.74609"
       y="-294.76096"
       ry="2.0799251"
       transform="scale(-1)" />
    <rect
       style="fill:#aa8800;fill-opacity:1;stroke-width:3.13776"
       id="rect61"
       width="75.718307"
       height="11.718309"
       x="285.74609"
       y="-318.19754"
       ry="2.0799251"
       transform="scale(-1)" />
    <rect
       style="fill:#aa8800;fill-opacity:1;stroke-width:3.13776"
       id="rect62"
       width="75.718307"
       height="11.718309"
       x="285.74609"
       y="-341.63416"
       ry="2.0799251"
       transform="scale(-1)" />
    <rect
       style="fill:#aa8800;fill-opacity:1;stroke-width:3.13776"
       id="rect64"
       width="75.718307"
       height="11.718309"
       x="285.74609"
       y="-365.07074"
       ry="2.0799251"
       transform="scale(-1)" />
    <rect
       style="fill:#aa8800;fill-opacity:1;stroke-width:3.13776"
       id="rect65"
       width="75.718307"
       height="11.718309"
       x="285.74609"
       y="-388.50735"
       ry="2.0799251"
       transform="scale(-1)" />
    <rect
       style="fill:#aa8800;fill-opacity:1;stroke-width:3.13776"
       id="rect66"
       width="75.718307"
       height="11.718309"
       x="285.74609"
       y="-411.94397"
       ry="2.0799251"
       transform="scale(-1)" />
    <rect
       style="fill:#aa8800;fill-opacity:1;stroke-width:3.13776"
       id="rect67"
       width="75.718323"
       height="11.718309"
       x="285.74609"
       y="-435.38055"
       ry="2.0799251"
       transform="scale(-1)" />
    <g
       id="g74">
      <path
         id="path74"
         style="fill:#7100be;fill-opacity:1;stroke-width:3.18754"
         d="m -643.33541,118.98633 c -1.27356,0 -2.29902,0.93293 -2.29902,2.09158 v 323.93134 c 0,1.15865 1.02546,2.08961 2.29902,2.08961 h 91.04589 c 0.10387,0 0.2064,-0.006 0.30654,-0.0177 h 150.87678 c 0.86195,0 1.55643,-0.63181 1.55643,-1.41598 V 361.4836 c 0,-0.78417 -0.69448,-1.41598 -1.55643,-1.41598 H -549.99049 V 121.07791 c 0,-1.15865 -1.02546,-2.09158 -2.29903,-2.09158 z" />
      <path
         id="path73"
         style="fill:#ff0000;fill-opacity:1;stroke-width:3.26589"
         d="m -645.63443,130.70508 v 11.71875 h 70.31054 v 70.30859 h -35.15625 v -46.87304 h 11.71875 v 23.4375 h 11.71875 v -23.4375 -11.71876 h -46.87304 v 11.71876 h 11.71875 v 46.87304 h -11.71875 v 11.71875 h 11.71875 v 82.02735 h -11.71875 v 11.71875 h 11.71875 v 35.15429 h -11.71875 v 11.71875 h 35.15429 v -11.71875 h -11.71875 v -35.15429 h 23.4375 v 70.31054 h -35.15429 v -11.71875 h -11.71875 v 58.5918 h 11.71875 v -11.71875 h 17.49609 v -11.71875 h -17.49609 v -11.7168 h 70.30859 v 11.7168 h -35.1543 v 11.71875 h 35.1543 v 13.32812 h 11.71875 v -25.04687 h 14.75977 v 11.71875 h 11.71875 v -11.71875 h 20.39453 v -11.7168 h -20.39453 v -11.71875 h 43.83203 v 23.43555 11.71875 h 58.59179 V 411.94336 388.50781 H -422.986 v 23.43555 h -11.71875 v -13.63281 h -11.71875 v 13.63281 h -11.71875 v -23.43555 -11.71875 h -67.26757 v 11.71875 11.71875 h -14.75977 v -23.4375 h -11.71875 v 11.71875 h -23.43555 V 283.04297 271.32422 h -11.71875 v -23.4375 h 23.75586 v -11.7168 h -35.47461 v 11.7168 23.4375 11.71875 h 11.71875 v 23.43555 h -23.4375 v -82.02735 h 35.15625 11.7168 v -82.02734 -11.71875 z" />
    </g>
    <rect
       style="fill:#ffffff;fill-opacity:1;stroke-width:3.02362"
       id="rect76"
       width="512"
       height="512"
       x="0"
       y="0" />
    <path
       id="path75"
       style="fill:#4b004b;fill-opacity:1;stroke-width:3.00831"
       d="m 142.04604,36.819793 c -1.20195,0 -2.16956,0.880671 -2.16956,1.974172 v 9.08565 h 77.41507 V 58.939437 136.3545 H 206.23356 173.0541 v 77.41507 h 22.11964 v -22.1178 H 184.11392 V 180.59195 158.4723 147.41432 h 33.47992 v 11.05798 h -22.4201 v 22.11965 h 11.05982 v 11.05982 99.53471 h 22.11781 v -11.05983 h 11.05981 v 22.11965 h 13.92986 v -11.05982 -11.05983 h 63.48521 v 11.05983 22.1178 h 11.05982 v -12.86625 h 11.05982 v 12.86625 h 11.05983 v -22.1178 h 11.05982 v 22.1178 11.05982 h -55.29726 v -11.05982 -22.1178 h -41.36742 v 11.05982 h 19.24777 v 11.05798 h -19.24777 v 11.05982 h -11.05982 v -11.05982 h -13.92986 v 23.63852 h -11.05981 v -12.5787 h -33.17763 v -11.05982 h 33.17763 V 302.2463 h -66.35525 v 11.05798 h 16.51231 v 11.05982 h -16.51231 v 11.05982 H 150.9363 v -55.29727 h 11.05982 v 11.05983 h 33.17762 V 224.8294 H 173.0541 v 33.17761 h 11.05982 v 11.05982 H 150.9363 v -11.05982 h 11.05982 V 224.8294 H 150.9363 v -11.05983 h 11.05982 V 136.3545 H 150.9363 v -11.05982 h 11.05982 V 81.057239 H 150.9363 v -11.05983 h 44.23744 v 11.05983 22.119641 H 184.11392 V 81.057239 H 173.0541 v 44.237441 h 33.17946 V 58.939437 H 139.87648 V 344.51141 c 0,1.0935 0.96761,1.97234 2.16956,1.97234 h 85.92745 c 0.098,0 0.19489,-0.006 0.28939,-0.0166 h 142.39153 c 0.81348,0 1.46911,-0.59632 1.46911,-1.33639 v -79.44822 c 0,-0.74009 -0.65563,-1.33641 -1.46911,-1.33641 H 230.14306 V 38.793965 c 0,-1.093491 -0.96761,-1.974172 -2.16957,-1.974172 z" />
    <text
       xml:space="preserve"
       style="font-style:normal;font-variant:normal;font-weight:normal;font-stretch:normal;font-size:96px;font-family:'JetBrainsMono Nerd Font';-inkscape-font-specification:'JetBrainsMono Nerd Font';writing-mode:lr-tb;direction:ltr;fill:#4b004b;fill-opacity:1;stroke-width:3.02362"
       x="82.815918"
       y="463.81268"
       id="text75"><tspan
         sodipodi:role="line"
         id="tspan75"
         x="82.815918"
         y="463.81268"
         style="font-weight:bold;font-size:96px;fill:#000000">Blocks</tspan></text>
  </g>
</svg>
